<svg width="50" height="80" viewBox="0 0 50 80" fill="none" xmlns="http://www.w3.org/2000/svg">
<path d="M24.9864 0.341888C12.5127 0.341888 4.10643 8.10257 1.22526 17.7778C-0.672916 24.1026 0.716823 32.547 3.42851 38.4957C6.51305 45.265 12.5127 48.547 12.5127 58.2222H24.9864H37.4941C37.4941 48.547 43.4937 45.265 46.5782 38.4957C49.2899 32.5812 50.6796 24.1026 48.7815 17.7778C45.9003 8.10257 37.4941 0.341888 24.9864 0.341888Z" fill="#FAFAFA"/>
<path d="M24.9864 0C13.36 0 4.10641 6.76923 0.886279 17.7094C-1.11359 24.4444 0.54732 33.094 3.12342 38.6667C4.1742 40.9915 5.59784 42.906 6.95369 44.7863C9.63148 48.4786 12.1737 51.9658 12.1737 58.2564V58.6325H37.833V58.2564C37.833 51.9658 40.3752 48.4786 43.053 44.7863C44.4089 42.9402 45.7986 40.9915 46.8833 38.6667C49.4255 33.094 51.1203 24.4444 49.1204 17.7094C45.8664 6.76923 36.6466 0 24.9864 0ZM46.2392 38.359C45.2223 40.6154 43.8326 42.4957 42.5107 44.3419C39.9346 47.8974 37.2568 51.5897 37.1551 57.8803H12.8855C12.7838 51.5555 10.106 47.8974 7.5299 44.3419C6.20796 42.4957 4.81823 40.6154 3.80134 38.359C1.29303 32.8889 -0.333978 24.4444 1.5981 17.8803C4.75043 7.28205 13.7329 0.683761 25.0203 0.683761C36.3077 0.683761 45.2901 7.28205 48.4425 17.8803C50.3746 24.4444 48.7475 32.8889 46.2392 38.359Z" fill="#121212"/>
<path d="M35.968 28.4786H30.0269C29.8572 28.4786 29.6874 28.6154 29.6874 28.7863L29.3819 31.4872L28.3634 24.3077C28.3295 24.1368 28.1937 24 27.99 24C27.8203 24 27.6505 24.1368 27.6505 24.3077L26.7678 31.5897L25.4099 25.1624C25.3759 24.9915 25.2401 24.8889 25.0704 24.8889C24.9006 24.8889 24.7648 24.9915 24.7309 25.1624L23.339 31.6239L22.3545 25.641C22.3205 25.4701 22.1847 25.3333 22.015 25.3333C21.8452 25.3333 21.6755 25.4701 21.6755 25.641L20.623 32.1709L19.299 28.6154C19.2311 28.4786 19.1293 28.3761 18.9596 28.3761H14.8178C14.6141 28.3761 14.4443 28.547 14.4443 28.7521C14.4443 28.9573 14.6141 29.1282 14.8178 29.1282H18.7219L20.4194 33.7094C20.4873 33.8462 20.623 33.9487 20.7928 33.9487C20.9625 33.9487 21.0983 33.812 21.0983 33.641L22.015 27.9316L22.9316 33.641C22.9655 33.812 23.1013 33.9487 23.2711 33.9487C23.4408 33.9487 23.5766 33.8462 23.6445 33.6752L25.1043 27.0086L26.5641 33.9145C26.5981 34.0855 26.7678 34.188 26.9376 34.188C27.1073 34.188 27.2431 34.0513 27.2771 33.8804L28.0918 27.1111L29.1103 34.3248C29.1443 34.4957 29.2801 34.6325 29.4498 34.6325C29.6195 34.6325 29.7893 34.4957 29.7893 34.3248L30.4004 29.265H36.0359C36.2396 29.265 36.4094 29.094 36.4094 28.8889C36.4094 28.6838 36.1717 28.4786 35.968 28.4786Z" fill="#121212"/>
<path d="M15.1561 28.6837L14.4443 28.7863L19.4949 59.6239H25.1894V58.906H20.105L15.1561 28.6837Z" fill="#121212"/>
<path d="M29.9013 58.906H24.8169V59.6239H30.4775L36.4094 28.9231L35.7314 28.7863L29.9013 58.906Z" fill="#121212"/>
<path d="M24.9861 79.6581C28.2402 79.6581 33.3246 75.7949 33.3246 75.7949L16.4443 75.7265C16.4443 75.6923 21.7321 79.6581 24.9861 79.6581Z" fill="#FAFAFA"/>
<path d="M33.2905 75.4188L16.4103 75.3504C16.2408 75.3504 16.1052 75.453 16.0713 75.5898C16.0374 75.7265 16.0713 75.8974 16.2069 76C16.4103 76.1709 21.6303 80 24.9521 80C28.2739 80 33.2905 76.2051 33.4939 76.0684C33.6295 75.9658 33.6634 75.8291 33.6295 75.6581C33.5956 75.5214 33.46 75.4188 33.2905 75.4188ZM24.986 79.2821C22.681 79.2821 19.2236 77.1624 17.5966 76.0684L32.2059 76.1368C30.6127 77.1966 27.257 79.2821 24.986 79.2821Z" fill="#121212"/>
<path d="M37.8322 58.2222H12.139C11.495 58.2222 10.9526 58.7692 10.9526 59.4188V60.8205C10.9526 61.4701 11.495 62.0171 12.139 62.0171H37.8322C38.4762 62.0171 39.0186 61.4701 39.0186 60.8205V59.4188C39.0186 58.7692 38.5101 58.2222 37.8322 58.2222Z" fill="#FAFAFA"/>
<path d="M37.8325 57.8803H12.1393C11.2919 57.8803 10.5801 58.5641 10.5801 59.453V60.8547C10.5801 61.7094 11.258 62.4274 12.1393 62.4274H37.8325C38.6799 62.4274 39.3917 61.7436 39.3917 60.8547V59.453C39.3917 58.5641 38.7138 57.8803 37.8325 57.8803ZM38.6799 60.8205C38.6799 61.2991 38.3071 61.6752 37.8325 61.6752H12.1393C11.6648 61.6752 11.2919 61.2991 11.2919 60.8205V59.4188C11.2919 58.9402 11.6648 58.5641 12.1393 58.5641H37.8325C38.3071 58.5641 38.6799 58.9402 38.6799 59.4188V60.8205Z" fill="#121212"/>
<path d="M37.8317 65.6752H12.1385C11.4945 65.6752 10.9521 66.2222 10.9521 66.8718V68.2735C10.9521 68.9231 11.4945 69.4701 12.1385 69.4701H37.8317C38.4758 69.4701 39.0181 68.9231 39.0181 68.2735V66.8718C39.0181 66.188 38.5097 65.6752 37.8317 65.6752Z" fill="#FAFAFA"/>
<path d="M37.832 65.2991H12.1388C11.2914 65.2991 10.5796 65.9829 10.5796 66.8718V68.2735C10.5796 69.1282 11.2575 69.8461 12.1388 69.8461H37.832C38.6794 69.8461 39.3913 69.1624 39.3913 68.2735V66.8718C39.3913 65.9829 38.7133 65.2991 37.832 65.2991ZM38.6794 68.2735C38.6794 68.7521 38.3066 69.1282 37.832 69.1282H12.1388C11.6643 69.1282 11.2914 68.7521 11.2914 68.2735V66.8718C11.2914 66.3932 11.6643 66.0171 12.1388 66.0171H37.832C38.3066 66.0171 38.6794 66.3932 38.6794 66.8718V68.2735Z" fill="#121212"/>
<path d="M33.1552 69.3675H16.8512C16.4444 69.3675 16.1055 70.2564 16.1055 71.3846V73.7436C16.1055 74.8718 16.4444 75.7607 16.8512 75.7607H33.1552C33.5619 75.7607 33.9009 74.8718 33.9009 73.7436V71.3846C33.9009 70.2564 33.5619 69.3675 33.1552 69.3675Z" fill="#FAFAFA"/>
<path d="M33.1545 69.0256H16.8505C16.1048 69.0256 15.7319 70.2564 15.7319 71.3846V73.7436C15.7319 74.8718 16.0709 76.1026 16.8505 76.1026H33.1545C33.9002 76.1026 34.2731 74.8718 34.2731 73.7436V71.3846C34.2731 70.2564 33.9002 69.0256 33.1545 69.0256ZM33.5274 73.7436C33.5274 74.7692 33.2562 75.3162 33.1206 75.3846H16.8505C16.7488 75.3162 16.4438 74.7692 16.4438 73.7436V71.3846C16.4438 70.359 16.7488 69.7778 16.8505 69.7436H33.1206C33.2223 69.812 33.5274 70.359 33.5274 71.3846V73.7436Z" fill="#121212"/>
<path d="M37.8317 69.3675H12.1385C11.4945 69.3675 10.9521 69.9145 10.9521 70.5641V71.9658C10.9521 72.6153 11.4945 73.1624 12.1385 73.1624H37.8317C38.4758 73.1624 39.0181 72.6153 39.0181 71.9658V70.5641C39.0181 69.9145 38.5097 69.3675 37.8317 69.3675Z" fill="#FAFAFA"/>
<path d="M37.832 69.0256H12.1388C11.2914 69.0256 10.5796 69.7094 10.5796 70.5983V72C10.5796 72.8547 11.2575 73.5726 12.1388 73.5726H37.832C38.6794 73.5726 39.3913 72.8889 39.3913 72V70.5983C39.3913 69.7094 38.7133 69.0256 37.832 69.0256ZM38.6794 71.9658C38.6794 72.4444 38.3066 72.8205 37.832 72.8205H12.1388C11.6643 72.8205 11.2914 72.4444 11.2914 71.9658V70.5641C11.2914 70.0854 11.6643 69.7094 12.1388 69.7094H37.832C38.3066 69.7094 38.6794 70.0854 38.6794 70.5641V71.9658Z" fill="#121212"/>
<path d="M37.8317 61.9487H12.1385C11.4945 61.9487 10.9521 62.4957 10.9521 63.1453V64.547C10.9521 65.1966 11.4945 65.7436 12.1385 65.7436H37.8317C38.4758 65.7436 39.0181 65.1966 39.0181 64.547V63.1453C39.0181 62.4957 38.5097 61.9487 37.8317 61.9487Z" fill="#FAFAFA"/>
<path d="M37.832 61.5727H12.1388C11.2914 61.5727 10.5796 62.2564 10.5796 63.1453V64.547C10.5796 65.4017 11.2575 66.1197 12.1388 66.1197H37.832C38.6794 66.1197 39.3913 65.4359 39.3913 64.547V63.1453C39.3913 62.2906 38.7133 61.5727 37.832 61.5727ZM38.6794 64.547C38.6794 65.0256 38.3066 65.4017 37.832 65.4017H12.1388C11.6643 65.4017 11.2914 65.0256 11.2914 64.547V63.1453C11.2914 62.6667 11.6643 62.2906 12.1388 62.2906H37.832C38.3066 62.2906 38.6794 62.6667 38.6794 63.1453V64.547Z" fill="#121212"/>
</svg>
