<svg width="24" height="24" viewBox="0 0 24 24" fill="none" xmlns="http://www.w3.org/2000/svg">
<path d="M19 12C19 11.5602 18.9587 11.12 18.877 10.6926C18.8402 10.4992 18.6708 10.3594 18.4741 10.3594H12.0273C11.8006 10.3594 11.6172 10.5428 11.6172 10.7695V13.2305C11.6172 13.4572 11.8006 13.6406 12.0273 13.6406H15.335C15.1289 14.0578 14.8449 14.4198 14.5114 14.7244L16.8296 17.0426C18.1635 15.7718 19 13.9835 19 12Z" fill="#121212"/>
<path d="M11.9999 8.28125C12.8046 8.28125 13.5701 8.5368 14.2133 9.02065C14.3759 9.14282 14.6055 9.128 14.7497 8.98259L16.5 7.23221C16.5814 7.15089 16.625 7.03913 16.6198 6.92418C16.6146 6.80923 16.5617 6.70187 16.4736 6.62777C15.2211 5.57799 13.6321 5 11.9999 5C9.59782 5 7.4757 6.22101 6.22119 8.07486L8.62875 10.4824C9.20314 9.18862 10.4955 8.28125 11.9999 8.28125Z" fill="#121212"/>
<path d="M11.9999 19C13.5657 19 15.0076 18.475 16.1726 17.6004L13.8109 15.2386C13.2711 15.5426 12.6541 15.7188 11.9999 15.7188C10.4955 15.7188 9.20314 14.8114 8.62875 13.5176L6.22119 15.9251C7.4757 17.779 9.59782 19 11.9999 19Z" fill="#121212"/>
<path d="M8.34097 12.5907C8.30955 12.3971 8.28125 12.2022 8.28125 11.9999C8.28125 11.7977 8.30955 11.6027 8.34097 11.4092L5.76727 8.83545C5.28033 9.78646 5 10.8601 5 11.9999C5 13.1397 5.28033 14.2134 5.76729 15.1644L8.34097 12.5907Z" fill="#121212"/>
</svg>
