<svg width="24" height="24" viewBox="0 0 24 24" fill="none" xmlns="http://www.w3.org/2000/svg">
<path d="M16.6316 8.66666C16.3504 8.66666 16.0883 8.75 15.8707 8.892C15.6833 8.37334 15.1749 8 14.5789 8C14.2977 8 14.0357 8.08334 13.8181 8.22534C13.6306 7.70669 13.1222 7.33334 12.5263 7.33334C12.2773 7.33334 12.0433 7.39869 11.8421 7.51269V5.33334C11.8421 4.598 11.2284 4 10.4737 4C9.71899 4 9.10526 4.598 9.10526 5.33334V13.1273L7.22438 12.2107C6.94111 12.0727 6.62363 12 6.30685 12C5.5857 12 5 12.5713 5 13.2773C5 13.618 5.13615 13.9373 5.38317 14.178L9.80726 18.4887C10.8069 19.4633 12.1377 20 13.5526 20C16.0048 20 18 18.056 18 15.6667V10C18 9.26466 17.3863 8.66666 16.6316 8.66666ZM17.3158 15.6667C17.3158 17.6887 15.6271 19.3333 13.5519 19.3333C12.3197 19.3333 11.162 18.866 10.2917 18.0167L5.86691 13.706C5.74924 13.592 5.68423 13.4393 5.68423 13.2733C5.68423 12.9387 5.96339 12.6667 6.30685 12.6667C6.51827 12.6667 6.72902 12.7153 6.91853 12.8073L9.2948 13.9647C9.40087 14.016 9.52742 14.0107 9.62733 13.95C9.72791 13.8894 9.78949 13.782 9.78949 13.6667V5.33334C9.78949 4.966 10.096 4.66669 10.4737 4.66669C10.8514 4.66669 11.1579 4.96603 11.1579 5.33334V11.6667C11.1579 11.8507 11.3112 12 11.5 12C11.6888 12 11.8421 11.8507 11.8421 11.6667V8.66669C11.8421 8.29934 12.1486 8.00003 12.5263 8.00003C12.904 8.00003 13.2105 8.29938 13.2105 8.66669V11.6667C13.2105 11.8507 13.3638 12 13.5526 12C13.7415 12 13.8947 11.8507 13.8947 11.6667V9.33334C13.8947 8.966 14.2013 8.66669 14.5789 8.66669C14.9566 8.66669 15.2631 8.96603 15.2631 9.33334V11.6667C15.2631 11.8507 15.4164 12 15.6053 12C15.7941 12 15.9474 11.8507 15.9474 11.6667V10C15.9474 9.63266 16.2539 9.33334 16.6316 9.33334C17.0093 9.33334 17.3158 9.63269 17.3158 10V15.6667Z" fill="#121212"/>
</svg>
