<svg width="30" height="22" viewBox="0 0 30 22" fill="none" xmlns="http://www.w3.org/2000/svg">
<path d="M8.24984 19.2502C9.26236 19.2502 10.0832 18.4294 10.0832 17.4168C10.0832 16.4043 9.26236 15.5835 8.24984 15.5835C7.23731 15.5835 6.4165 16.4043 6.4165 17.4168C6.4165 18.4294 7.23731 19.2502 8.24984 19.2502Z" stroke="#121212" stroke-linecap="round" stroke-linejoin="round"/>
<path d="M15.5833 19.2502C16.5959 19.2502 17.4167 18.4294 17.4167 17.4168C17.4167 16.4043 16.5959 15.5835 15.5833 15.5835C14.5708 15.5835 13.75 16.4043 13.75 17.4168C13.75 18.4294 14.5708 19.2502 15.5833 19.2502Z" stroke="#121212" stroke-linecap="round" stroke-linejoin="round"/>
<path d="M2.75 2.75H4.58333L6.41667 13.75C6.61441 14.3124 6.98953 14.7952 7.48552 15.1259C7.98151 15.4565 8.57152 15.6171 9.16667 15.5833H15.5833C16.1785 15.6171 16.7685 15.4565 17.2645 15.1259C17.7605 14.7952 18.1356 14.3124 18.3333 13.75L19.25 7.33333H5.31667" stroke="#121212" stroke-linecap="round" stroke-linejoin="round"/>
<path d="M22.9764 11.572C22.9764 10.196 23.2004 9.124 23.6484 8.356C24.0964 7.58 24.8804 7.192 26.0004 7.192C27.1124 7.192 27.8924 7.58 28.3404 8.356C28.7884 9.124 29.0124 10.196 29.0124 11.572C29.0124 12.972 28.7884 14.06 28.3404 14.836C27.8924 15.612 27.1124 16 26.0004 16C24.8804 16 24.0964 15.612 23.6484 14.836C23.2004 14.06 22.9764 12.972 22.9764 11.572ZM27.9324 11.572C27.9324 10.876 27.8844 10.288 27.7884 9.808C27.7004 9.32 27.5124 8.928 27.2244 8.632C26.9444 8.336 26.5364 8.188 26.0004 8.188C25.4564 8.188 25.0404 8.336 24.7524 8.632C24.4724 8.928 24.2844 9.32 24.1884 9.808C24.1004 10.288 24.0564 10.876 24.0564 11.572C24.0564 12.292 24.1004 12.896 24.1884 13.384C24.2844 13.872 24.4724 14.264 24.7524 14.56C25.0404 14.856 25.4564 15.004 26.0004 15.004C26.5364 15.004 26.9444 14.856 27.2244 14.56C27.5124 14.264 27.7004 13.872 27.7884 13.384C27.8844 12.896 27.9324 12.292 27.9324 11.572Z" fill="#121212"/>
</svg>
