<svg width="438" height="268" viewBox="0 0 438 268" fill="none" xmlns="http://www.w3.org/2000/svg">
<path d="M142.34 172.52H111.54V213H95.7V172.52H8.8V161.08L90.42 59H108.02L29.26 158.44H96.14V122.8H111.54V158.44H142.34V172.52Z" fill="#121212"/>
<path d="M434.34 172.52H403.54V213H387.7V172.52H300.8V161.08L382.42 59H400.02L321.26 158.44H388.14V122.8H403.54V158.44H434.34V172.52Z" fill="#121212"/>
<path d="M192.005 203.699C201.241 209.9 211.703 213 223.392 213C235.081 213 245.47 209.9 254.562 203.699C263.797 197.499 271.013 188.631 276.208 177.096C281.403 165.416 284 151.717 284 136C284 120.283 281.403 106.656 276.208 95.1208C271.013 83.441 263.797 74.5009 254.562 68.3006C245.47 62.1002 235.081 59 223.392 59C211.703 59 201.241 62.1002 192.005 68.3006C182.914 74.5009 175.771 83.441 170.576 95.1208C165.525 106.656 163 120.283 163 136C163 151.717 165.525 165.416 170.576 177.096C175.771 188.631 182.914 197.499 192.005 203.699Z" fill="#121212"/>
<path d="M224.789 81.0262V11H221.213V81.0262H213.962V108.613H232.04V81.0262H224.789Z" fill="#FAFAFA"/>
<path d="M231.322 110.663H214.678C214.011 110.663 213.387 110.863 212.999 111.2L182.389 137.809C181.412 138.659 182.387 139.84 184.067 139.84H261.933C263.611 139.84 264.588 138.659 263.611 137.809L233.001 111.2C232.614 110.863 231.988 110.663 231.322 110.663Z" fill="#FAFAFA"/>
<path d="M231.813 141.515H214.189C214.189 141.515 211.73 153 223 153C234.272 153 231.813 141.515 231.813 141.515Z" fill="#FAFAFA"/>
</svg>
