<svg width="22" height="22" viewBox="0 0 22 22" fill="none" xmlns="http://www.w3.org/2000/svg">
<path d="M8.24984 19.2499C9.26236 19.2499 10.0832 18.4291 10.0832 17.4166C10.0832 16.4041 9.26236 15.5833 8.24984 15.5833C7.23731 15.5833 6.4165 16.4041 6.4165 17.4166C6.4165 18.4291 7.23731 19.2499 8.24984 19.2499Z" stroke="#121212" stroke-linecap="round" stroke-linejoin="round"/>
<path d="M15.5833 19.2499C16.5959 19.2499 17.4167 18.4291 17.4167 17.4166C17.4167 16.4041 16.5959 15.5833 15.5833 15.5833C14.5708 15.5833 13.75 16.4041 13.75 17.4166C13.75 18.4291 14.5708 19.2499 15.5833 19.2499Z" stroke="#121212" stroke-linecap="round" stroke-linejoin="round"/>
<path d="M2.75 2.75H4.58333L6.41667 13.75C6.61441 14.3124 6.98953 14.7952 7.48552 15.1259C7.98151 15.4565 8.57152 15.6171 9.16667 15.5833H15.5833C16.1785 15.6171 16.7685 15.4565 17.2645 15.1259C17.7605 14.7952 18.1356 14.3124 18.3333 13.75L19.25 7.33333H5.31667" stroke="#121212" stroke-linecap="round" stroke-linejoin="round"/>
</svg>
