<svg width="14" height="14" viewBox="0 0 14 14" fill="none" xmlns="http://www.w3.org/2000/svg">
<path d="M14 7.00003C14 6.56023 13.9587 6.12002 13.877 5.69264C13.8402 5.49918 13.6708 5.35938 13.4741 5.35938H7.02734C6.80064 5.35938 6.61719 5.54282 6.61719 5.76953V8.23047C6.61719 8.45718 6.80064 8.64062 7.02734 8.64062H10.335C10.1289 9.05784 9.84493 9.41984 9.51141 9.72439L11.8296 12.0426C13.1635 10.7718 14 8.98352 14 7.00003Z" fill="#121212"/>
<path d="M6.99994 3.28125C7.80464 3.28125 8.57007 3.5368 9.21333 4.02065C9.37595 4.14282 9.60547 4.128 9.74965 3.98259L11.5 2.23221C11.5814 2.15089 11.625 2.03913 11.6198 1.92418C11.6146 1.80923 11.5617 1.70187 11.4736 1.62777C10.2211 0.577992 8.63214 0 6.99994 0C4.59782 0 2.4757 1.22101 1.22119 3.07486L3.62875 5.48242C4.20314 4.18862 5.49546 3.28125 6.99994 3.28125Z" fill="#121212"/>
<path d="M6.99994 14C8.56572 14 10.0076 13.475 11.1726 12.6004L8.81094 10.2386C8.27112 10.5426 7.65414 10.7188 6.99994 10.7188C5.49546 10.7188 4.20314 9.81138 3.62875 8.51758L1.22119 10.9251C2.4757 12.779 4.59782 14 6.99994 14Z" fill="#121212"/>
<path d="M3.34097 7.5908C3.30955 7.39723 3.28125 7.2023 3.28125 7.00004C3.28125 6.79777 3.30955 6.60284 3.34097 6.40927L0.767266 3.83557C0.280328 4.78659 0 5.86024 0 7.00004C0 8.13983 0.280328 9.21349 0.767293 10.1645L3.34097 7.5908Z" fill="#121212"/>
</svg>
