<svg width="80" height="91" viewBox="0 0 80 91" fill="none" xmlns="http://www.w3.org/2000/svg">
<path d="M40.2149 16.2678C28.5453 16.2678 20.6811 23.5485 17.9856 32.6254C16.2098 38.559 17.51 46.4811 20.0468 52.0619C22.9325 58.4125 28.5453 61.4916 28.5453 70.5684H40.2149H51.9161C51.9161 61.4916 57.5289 58.4125 60.4146 52.0619C62.9515 46.5132 64.2516 38.559 62.4758 32.6254C59.7804 23.5485 51.9161 16.2678 40.2149 16.2678Z" fill="#FAFAFA"/>
<path d="M40.2153 15.948C29.3385 15.948 20.6815 22.2986 17.669 32.5621C15.798 38.8806 17.3519 46.9952 19.7619 52.2232C20.7449 54.4042 22.0768 56.2004 23.3452 57.9644C25.8504 61.4283 28.2287 64.6998 28.2287 70.6014V70.9542H52.2337V70.6014C52.2337 64.6998 54.612 61.4283 57.1171 57.9644C58.3856 56.2324 59.6857 54.4042 60.7005 52.2232C63.0788 46.9952 64.6643 38.8806 62.7934 32.5621C59.7491 22.2986 51.1238 15.948 40.2153 15.948ZM60.0979 51.9346C59.1466 54.0514 57.8465 55.8155 56.6098 57.5474C54.1997 60.8831 51.6946 64.347 51.5995 70.2486H28.8946C28.7995 64.315 26.2943 60.8831 23.8843 57.5474C22.6476 55.8155 21.3474 54.0514 20.3961 51.9346C18.0495 46.8028 16.5274 38.8806 18.3349 32.7225C21.284 22.7797 29.6874 16.5895 40.247 16.5895C50.8067 16.5895 59.21 22.7797 62.1591 32.7225C63.9667 38.8806 62.4445 46.8028 60.0979 51.9346Z" fill="#121212"/>
<path d="M50.489 42.6653H44.931C44.7722 42.6653 44.6134 42.7936 44.6134 42.9539L44.3276 45.4877L43.3748 38.7523C43.343 38.5919 43.2159 38.4636 43.0254 38.4636C42.8666 38.4636 42.7078 38.5919 42.7078 38.7523L41.882 45.584L40.6116 39.5541C40.5798 39.3938 40.4528 39.2975 40.294 39.2975C40.1352 39.2975 40.0082 39.3938 39.9764 39.5541L38.6742 45.616L37.7532 40.0032C37.7214 39.8428 37.5944 39.7145 37.4356 39.7145C37.2768 39.7145 37.118 39.8428 37.118 40.0032L36.1334 46.1292L34.8947 42.7936C34.8312 42.6653 34.7359 42.569 34.5771 42.569H30.7024C30.5118 42.569 30.353 42.7294 30.353 42.9219C30.353 43.1143 30.5118 43.2747 30.7024 43.2747H34.3548L35.9428 47.5725C36.0064 47.7008 36.1334 47.797 36.2922 47.797C36.451 47.797 36.578 47.6687 36.578 47.5084L37.4356 42.1521L38.2931 47.5084C38.3249 47.6687 38.4519 47.797 38.6107 47.797C38.7695 47.797 38.8965 47.7008 38.9601 47.5405L40.3258 41.2861L41.6914 47.765C41.7232 47.9253 41.882 48.0216 42.0408 48.0216C42.1996 48.0216 42.3267 47.8933 42.3584 47.7329L43.1207 41.3823L44.0735 48.1498C44.1052 48.3102 44.2323 48.4385 44.3911 48.4385C44.5499 48.4385 44.7087 48.3102 44.7087 48.1498L45.2804 43.403H50.5526C50.7431 43.403 50.9019 43.2426 50.9019 43.0502C50.9019 42.8577 50.6796 42.6653 50.489 42.6653Z" fill="#121212"/>
<path d="M31.0189 42.8579L30.353 42.9541L35.0779 71.8845H40.4053V71.211H35.6487L31.0189 42.8579Z" fill="#121212"/>
<path d="M44.8133 71.2107H40.0566V71.8842H45.3523L50.9017 43.0822L50.2675 42.9539L44.8133 71.2107Z" fill="#121212"/>
<path d="M40.2147 90.6794C43.259 90.6794 48.0156 87.0551 48.0156 87.0551L32.2236 86.9909C32.2236 86.9589 37.1705 90.6794 40.2147 90.6794Z" fill="#FAFAFA"/>
<path d="M47.9838 86.7023L32.1918 86.6382C32.0333 86.6382 31.9064 86.7344 31.8747 86.8627C31.843 86.991 31.8747 87.1514 32.0016 87.2476C32.1918 87.4079 37.0753 91.0002 40.1829 91.0002C43.2906 91.0002 47.9838 87.44 48.174 87.3117C48.3009 87.2155 48.3326 87.0872 48.3009 86.9268C48.2692 86.7985 48.1423 86.7023 47.9838 86.7023ZM40.2146 90.3266C38.0583 90.3266 34.8238 88.3381 33.3017 87.3117L46.969 87.3759C45.4786 88.3702 42.3393 90.3266 40.2146 90.3266Z" fill="#121212"/>
<path d="M52.233 70.5681H28.1963C27.5938 70.5681 27.0864 71.0813 27.0864 71.6907V73.0057C27.0864 73.6151 27.5938 74.1283 28.1963 74.1283H52.233C52.8355 74.1283 53.3429 73.6151 53.3429 73.0057V71.6907C53.3429 71.0813 52.8673 70.5681 52.233 70.5681Z" fill="#FAFAFA"/>
<path d="M52.2337 70.2485H28.197C27.4042 70.2485 26.7383 70.89 26.7383 71.7239V73.0389C26.7383 73.8408 27.3725 74.5143 28.197 74.5143H52.2337C53.0265 74.5143 53.6924 73.8729 53.6924 73.0389V71.7239C53.6924 70.89 53.0582 70.2485 52.2337 70.2485ZM53.0265 73.0069C53.0265 73.4559 52.6777 73.8087 52.2337 73.8087H28.197C27.753 73.8087 27.4042 73.4559 27.4042 73.0069V71.6918C27.4042 71.2428 27.753 70.89 28.197 70.89H52.2337C52.6777 70.89 53.0265 71.2428 53.0265 71.6918V73.0069Z" fill="#121212"/>
<path d="M52.2326 77.5601H28.1958C27.5933 77.5601 27.0859 78.0732 27.0859 78.6826V79.9976C27.0859 80.607 27.5933 81.1202 28.1958 81.1202H52.2326C52.8351 81.1202 53.3424 80.607 53.3424 79.9976V78.6826C53.3424 78.0412 52.8668 77.5601 52.2326 77.5601Z" fill="#FAFAFA"/>
<path d="M52.2327 77.2083H28.196C27.4032 77.2083 26.7373 77.8497 26.7373 78.6836V79.9986C26.7373 80.8005 27.3715 81.474 28.196 81.474H52.2327C53.0255 81.474 53.6914 80.8326 53.6914 79.9986V78.6836C53.6914 77.8497 53.0572 77.2083 52.2327 77.2083ZM53.0255 79.9986C53.0255 80.4477 52.6767 80.8005 52.2327 80.8005H28.196C27.7521 80.8005 27.4032 80.4477 27.4032 79.9986V78.6836C27.4032 78.2346 27.7521 77.8818 28.196 77.8818H52.2327C52.6767 77.8818 53.0255 78.2346 53.0255 78.6836V79.9986Z" fill="#121212"/>
<path d="M47.8572 81.0242H32.6044C32.2238 81.0242 31.9067 81.8581 31.9067 82.9165V85.1296C31.9067 86.188 32.2238 87.0219 32.6044 87.0219H47.8572C48.2378 87.0219 48.5549 86.188 48.5549 85.1296V82.9165C48.5549 81.8581 48.2378 81.0242 47.8572 81.0242Z" fill="#FAFAFA"/>
<path d="M47.8569 80.7043H32.6041C31.9064 80.7043 31.5576 81.859 31.5576 82.9174V85.1305C31.5576 86.1889 31.8747 87.3436 32.6041 87.3436H47.8569C48.5546 87.3436 48.9034 86.1889 48.9034 85.1305V82.9174C48.9034 81.859 48.5546 80.7043 47.8569 80.7043ZM48.2058 85.1305C48.2058 86.0927 47.9521 86.6059 47.8252 86.67H32.6041C32.5089 86.6059 32.2236 86.0927 32.2236 85.1305V82.9174C32.2236 81.9552 32.5089 81.41 32.6041 81.3779H47.8252C47.9204 81.442 48.2058 81.9552 48.2058 82.9174V85.1305Z" fill="#121212"/>
<path d="M52.2326 81.0242H28.1958C27.5933 81.0242 27.0859 81.5373 27.0859 82.1467V83.4618C27.0859 84.0712 27.5933 84.5843 28.1958 84.5843H52.2326C52.8351 84.5843 53.3424 84.0712 53.3424 83.4618V82.1467C53.3424 81.5373 52.8668 81.0242 52.2326 81.0242Z" fill="#FAFAFA"/>
<path d="M52.2327 80.7043H28.196C27.4032 80.7043 26.7373 81.3458 26.7373 82.1797V83.4948C26.7373 84.2966 27.3715 84.9701 28.196 84.9701H52.2327C53.0255 84.9701 53.6914 84.3287 53.6914 83.4948V82.1797C53.6914 81.3458 53.0572 80.7043 52.2327 80.7043ZM53.0255 83.4627C53.0255 83.9117 52.6767 84.2645 52.2327 84.2645H28.196C27.7521 84.2645 27.4032 83.9117 27.4032 83.4627V82.1477C27.4032 81.6986 27.7521 81.3458 28.196 81.3458H52.2327C52.6767 81.3458 53.0255 81.6986 53.0255 82.1477V83.4627Z" fill="#121212"/>
<path d="M52.2326 74.0642H28.1958C27.5933 74.0642 27.0859 74.5774 27.0859 75.1868V76.5018C27.0859 77.1112 27.5933 77.6244 28.1958 77.6244H52.2326C52.8351 77.6244 53.3424 77.1112 53.3424 76.5018V75.1868C53.3424 74.5774 52.8668 74.0642 52.2326 74.0642Z" fill="#FAFAFA"/>
<path d="M52.2327 73.7124H28.196C27.4032 73.7124 26.7373 74.3539 26.7373 75.1878V76.5028C26.7373 77.3046 27.3715 77.9782 28.196 77.9782H52.2327C53.0255 77.9782 53.6914 77.3367 53.6914 76.5028V75.1878C53.6914 74.3859 53.0572 73.7124 52.2327 73.7124ZM53.0255 76.5028C53.0255 76.9518 52.6767 77.3046 52.2327 77.3046H28.196C27.7521 77.3046 27.4032 76.9518 27.4032 76.5028V75.1878C27.4032 74.7387 27.7521 74.3859 28.196 74.3859H52.2327C52.6767 74.3859 53.0255 74.7387 53.0255 75.1878V76.5028Z" fill="#121212"/>
<path d="M0.807631 42.2166C0.361636 42.2166 0 42.1747 0 41.7518C0 41.3289 0.361636 41.2817 0.807631 41.2817H7.61201C8.05822 41.2817 8.41975 41.3289 8.41975 41.7518C8.41975 42.1747 8.05822 42.2166 7.61201 42.2166H0.807631Z" fill="#121212"/>
<path d="M4.44856 21.9695C4.05848 21.7527 3.7624 21.5403 3.96686 21.1705C4.17131 20.8006 4.51044 20.9351 4.90051 21.1519L10.8518 24.46C11.242 24.6769 11.5354 24.894 11.3309 25.2639C11.1265 25.6338 10.7901 25.4946 10.3998 25.2776L4.44856 21.9695Z" fill="#121212"/>
<path d="M18.1221 6.37107C17.8991 5.98374 17.7544 5.64877 18.1196 5.43732C18.4848 5.22586 18.7064 5.51632 18.9294 5.90365L22.3316 11.8129C22.5547 12.2005 22.6947 12.538 22.3295 12.7495C21.9642 12.9609 21.7474 12.6679 21.5243 12.2804L18.1221 6.37107Z" fill="#121212"/>
<path d="M60.4162 5.39778C60.6332 5.00703 60.8455 4.71053 61.214 4.91627C61.5824 5.122 61.4476 5.46182 61.2307 5.85257L57.9204 11.8142C57.7034 12.2051 57.4863 12.4989 57.1179 12.2931C56.7494 12.0874 56.8889 11.7503 57.1059 11.3594L60.4162 5.39778Z" fill="#121212"/>
<path d="M75.1083 19.2156C75.478 18.9655 75.8011 18.7974 76.037 19.148C76.2728 19.4986 75.9993 19.7405 75.6296 19.9906L69.9885 23.8062C69.6186 24.0565 69.2925 24.22 69.0567 23.8694C68.8209 23.5188 69.0973 23.2814 69.4672 23.0312L75.1083 19.2156Z" fill="#121212"/>
<path d="M79.1924 41.2644C79.6384 41.2644 80 41.3062 80 41.7291C80 42.152 79.6384 42.1993 79.1924 42.1993H72.388C71.9418 42.1993 71.5802 42.152 71.5802 41.7291C71.5802 41.3062 71.9418 41.2644 72.388 41.2644H79.1924Z" fill="#121212"/>
<path d="M40.228 0.809896C40.228 0.36265 40.2697 0 40.6914 0C41.1132 0 41.1603 0.36265 41.1603 0.809896V7.63336C41.1603 8.08082 41.1132 8.44337 40.6914 8.44337C40.2697 8.44337 40.228 8.08082 40.228 7.63336V0.809896Z" fill="#121212"/>
</svg>
